<svg version="1.1" id="Layer_1" xmlns="http://www.w3.org/2000/svg" xmlns:xlink="http://www.w3.org/1999/xlink" x="0px" y="0px"
	 width="100%" viewBox="0 0 250 250" enable-background="new 0 0 250 250" xml:space="preserve">
<path fill="#725DFD" opacity="1.000000" stroke="none" 
	d="
M102.000000,1.000001 
	C107.022095,1.000000 112.044182,1.000000 117.553406,1.366306 
	C119.757019,4.922010 121.187332,8.309448 123.235680,11.269175 
	C138.318817,33.063366 153.484680,54.800846 168.764709,76.457253 
	C170.090515,78.336304 172.425644,79.503189 174.396606,81.459854 
	C173.912292,91.611679 173.323334,101.304535 172.387482,110.973526 
	C170.646622,109.888161 168.924011,109.071976 167.916321,107.722099 
	C163.843369,102.266129 159.815796,96.759422 156.106735,91.053505 
	C152.523376,85.540932 149.352081,79.760498 146.439911,74.062874 
	C147.541473,74.092857 148.201645,74.192368 148.864563,74.216461 
	C151.586044,74.315323 154.979553,74.434944 154.919983,70.926392 
	C154.886398,68.948059 152.713730,66.358063 150.803665,65.217278 
	C148.189468,63.655949 144.908813,63.210545 141.878998,61.918667 
	C141.501480,60.620132 141.333694,59.569637 140.789703,58.777489 
	C132.995148,47.427174 125.055084,36.175709 117.349579,24.765697 
	C112.072784,16.952030 107.105591,8.929282 102.000000,1.000001 
z"/>
<path fill="#472EFE" opacity="1.000000" stroke="none" 
	d="
M1.000002,99.000000 
	C1.000000,94.975456 1.000000,90.950912 1.321969,86.557930 
	C3.454776,88.328850 5.453341,90.337852 7.044723,92.629593 
	C14.920951,103.972107 22.659269,115.410400 30.537971,126.751167 
	C31.432589,128.038895 32.903076,128.926544 34.224571,130.433884 
	C34.366985,132.865952 34.311340,134.868668 34.430954,136.860840 
	C34.772263,142.545349 36.898804,143.941330 42.728851,142.753922 
	C43.848660,145.403183 44.596714,147.846359 45.977978,149.853867 
	C55.954189,164.353119 66.070267,178.756058 76.119263,193.205353 
	C88.566483,211.102997 101.007561,229.004959 113.389992,246.947388 
	C114.194633,248.113312 114.475494,249.640732 115.000000,251.000000 
	C110.643097,251.000000 106.286201,251.000000 101.444664,250.635330 
	C100.085999,248.505753 99.392151,246.620377 98.306763,244.996750 
	C93.598495,237.953613 88.775970,230.986847 83.996887,223.554962 
	C83.991287,221.074860 83.983788,219.032135 83.981979,216.560272 
	C83.000298,212.420792 82.012932,208.710449 80.952515,204.658951 
	C77.808105,197.938477 72.725395,193.972488 65.823608,191.737640 
	C65.078003,191.334579 64.538635,191.135559 63.979218,190.580688 
	C60.018314,184.343079 56.175529,178.392166 52.096424,172.607925 
	C49.966633,169.587845 47.421009,166.861008 45.032898,163.603394 
	C45.207371,159.318085 43.801502,156.407104 39.979137,154.589005 
	C39.789646,153.593063 39.779179,152.847198 39.427723,152.335571 
	C29.579365,137.999008 19.771767,123.633232 9.768033,109.405449 
	C7.169199,105.709274 3.939782,102.456459 1.000002,99.000000 
z"/>
<path fill="#8473FE" opacity="1.000000" stroke="none" 
	d="
M176.000000,0.999996 
	C181.688034,1.000000 187.376083,1.000000 193.601746,1.341894 
	C200.779755,11.618535 207.321869,21.620731 214.083405,31.472336 
	C224.431244,46.549267 234.882248,61.556313 245.420197,76.500832 
	C246.901169,78.601112 249.121765,80.179848 251.000000,82.000000 
	C251.000000,88.021156 251.000000,94.042305 250.637451,100.511230 
	C249.642181,100.780151 248.702103,100.808388 248.421707,100.392181 
	C241.239853,89.731773 234.126923,79.024940 227.342834,68.165405 
	C228.812958,65.849442 231.118683,63.456577 230.744629,61.605106 
	C230.361343,59.707935 227.594238,57.558857 225.447617,56.901943 
	C220.774414,55.471848 215.832306,54.920467 210.931213,53.667992 
	C203.685623,42.819298 196.436584,32.360973 189.358078,21.788500 
	C184.776428,14.945341 180.444077,7.935272 176.000000,0.999996 
z"/>
<path fill="#6D59FF" opacity="1.000000" stroke="none" 
	d="
M251.000000,213.000000 
	C251.000000,223.020889 251.000000,233.041794 250.780640,243.201782 
	C249.719955,243.934006 248.878647,244.527145 247.869354,244.818512 
	C240.663132,234.126312 233.568787,223.773041 226.639023,213.310760 
	C225.410080,211.455353 224.866180,209.146194 224.299835,206.858170 
	C225.579880,204.245102 227.571320,201.712341 227.324799,199.420242 
	C226.919785,195.654053 223.168228,195.355972 219.571503,195.048035 
	C217.773560,194.994720 216.390457,194.959122 214.907227,194.606384 
	C211.002350,189.060242 206.947205,183.991516 203.466980,178.554764 
	C200.321533,173.641022 197.804352,168.325119 195.457428,163.139130 
	C198.602737,163.031967 201.300735,162.972244 204.412750,162.970581 
	C208.885574,163.377075 212.944397,163.725525 217.007538,164.452011 
	C217.724670,166.635544 218.131210,168.650070 219.198364,170.213715 
	C228.307373,183.560562 237.493286,196.855820 246.796066,210.068039 
	C247.720581,211.381073 249.576416,212.038361 251.000000,213.000000 
z"/>
<path fill="#6049FE" opacity="1.000000" stroke="none" 
	d="
M32.000000,1.000000 
	C34.700630,1.000000 37.401260,1.000000 40.614372,1.347972 
	C42.032063,3.262552 42.825314,4.907658 43.860085,6.383413 
	C52.536709,18.757715 61.355644,31.033333 69.937981,43.472340 
	C78.705452,56.179680 87.172867,69.094490 95.987900,81.768066 
	C97.267654,83.607994 99.752373,84.609818 101.759750,86.410004 
	C101.561394,94.831467 106.861259,98.656517 113.077515,102.171860 
	C117.092148,108.907394 121.140175,115.244446 125.105949,121.632561 
	C127.518814,125.519257 129.804794,129.484726 131.847580,133.661591 
	C127.698410,134.215317 123.849434,134.522247 119.995026,134.458466 
	C119.694908,132.986252 119.668221,131.704086 119.065567,130.810226 
	C109.247871,116.248276 99.415649,101.694977 89.408432,87.263351 
	C88.171799,85.479958 85.915359,84.403717 84.058777,82.575577 
	C84.312004,71.599289 78.165588,65.114975 69.979095,59.540661 
	C69.612724,58.260704 69.434502,57.226639 68.898598,56.434578 
	C61.092537,44.897331 53.172882,33.436497 45.420982,21.863218 
	C40.819981,14.994105 36.465385,7.959949 32.000000,1.000000 
z"/>
<path fill="#7662FE" opacity="1.000000" stroke="none" 
	d="
M174.291931,81.000885 
	C172.425644,79.503189 170.090515,78.336304 168.764709,76.457253 
	C153.484680,54.800846 138.318817,33.063366 123.235680,11.269175 
	C121.187332,8.309448 119.757019,4.922010 118.020271,1.366306 
	C124.021149,1.000000 130.042297,1.000000 136.601395,1.341901 
	C138.062210,3.246310 138.894699,4.871089 139.921768,6.361805 
	C151.649475,23.383759 163.406845,40.385281 175.022110,57.767910 
	C174.568024,60.703014 174.006149,63.259949 173.979492,65.822449 
	C173.926865,70.880295 174.170700,75.941231 174.291931,81.000885 
z"/>
<path fill="#371DFF" opacity="1.000000" stroke="none" 
	d="
M69.000000,251.000000 
	C58.312439,251.000000 47.624878,251.000000 36.404724,250.650726 
	C35.485111,249.389297 35.239952,248.379639 34.689980,247.579468 
	C24.935642,233.387085 15.185838,219.190964 5.294485,205.094315 
	C4.337241,203.730103 2.453605,203.015915 1.000001,202.000000 
	C1.000000,192.645767 1.000000,183.291550 1.337872,173.537933 
	C2.863957,174.219208 4.300196,175.125458 5.201732,176.407669 
	C13.545495,188.274414 21.707697,200.270187 30.170778,212.050186 
	C31.453161,213.835190 34.009899,214.704636 35.989025,216.328537 
	C36.008511,217.100937 36.016159,217.542358 36.015228,218.451477 
	C36.009930,223.611145 36.013214,228.303101 36.033455,233.369492 
	C36.481224,237.808655 38.829975,240.073441 42.802170,240.397675 
	C50.525043,241.028030 58.262974,241.473984 66.000549,242.378632 
	C67.004295,245.507278 68.002151,248.253647 69.000000,251.000000 
z"/>
<path fill="#4930FF" opacity="1.000000" stroke="none" 
	d="
M115.468277,251.000000 
	C114.475494,249.640732 114.194633,248.113312 113.389992,246.947388 
	C101.007561,229.004959 88.566483,211.102997 76.119263,193.205353 
	C66.070267,178.756058 55.954189,164.353119 45.977978,149.853867 
	C44.596714,147.846359 43.848660,145.403183 42.864456,142.453064 
	C43.547058,139.827072 44.172676,137.909698 45.151291,136.054474 
	C46.905777,137.441483 48.586639,138.571564 49.666603,140.120590 
	C64.537521,161.450623 79.276184,182.873032 94.198395,204.166885 
	C96.015358,206.759674 98.710190,208.737289 101.007980,211.396240 
	C102.676491,215.531021 104.335182,219.269547 106.062057,223.345398 
	C111.381439,230.677750 118.225655,234.971970 127.141724,236.186005 
	C127.492348,236.623672 127.733795,236.830872 128.025650,237.373810 
	C128.671448,239.428101 129.199371,241.155319 129.948151,242.780762 
	C131.225754,245.554138 132.641998,248.263657 134.000000,251.000000 
	C127.978844,251.000000 121.957695,251.000000 115.468277,251.000000 
z"/>
<path fill="#8878FF" opacity="1.000000" stroke="none" 
	d="
M251.000000,81.531364 
	C249.121765,80.179848 246.901169,78.601112 245.420197,76.500832 
	C234.882248,61.556313 224.431244,46.549267 214.083405,31.472336 
	C207.321869,21.620731 200.779755,11.618535 194.069672,1.341894 
	C199.354935,1.000000 204.709854,1.000000 210.595886,1.348224 
	C211.815186,3.011892 212.378250,4.412907 213.210526,5.629787 
	C223.819031,21.140295 234.415634,36.659595 245.159271,52.076302 
	C246.721924,54.318653 249.034454,56.038425 251.000000,58.000008 
	C251.000000,65.687576 251.000000,73.375153 251.000000,81.531364 
z"/>
<path fill="#6955FF" opacity="1.000000" stroke="none" 
	d="
M68.000000,1.000000 
	C73.688042,1.000000 79.376083,1.000000 85.601929,1.342465 
	C89.280838,6.741623 92.241646,11.921493 95.596535,16.832125 
	C106.043396,32.123444 116.639549,47.312771 126.862045,62.703403 
	C122.029892,64.831955 117.513496,66.798752 112.915283,68.440872 
	C100.063103,49.419395 87.257660,30.746374 74.553459,12.004728 
	C72.162003,8.476783 70.174110,4.675274 68.000000,1.000000 
z"/>
<path fill="#6450FF" opacity="1.000000" stroke="none" 
	d="
M67.533882,1.000000 
	C70.174110,4.675274 72.162003,8.476783 74.553459,12.004728 
	C87.257660,30.746374 100.063103,49.419395 112.607300,68.613319 
	C109.701591,71.948555 107.022064,74.786652 104.161369,77.289864 
	C98.231888,68.679550 92.491798,60.398396 86.733459,52.129944 
	C76.621376,37.609932 66.443527,23.135136 56.437149,8.542706 
	C54.898056,6.298220 54.126518,3.527400 53.000000,1.000000 
	C57.689255,1.000000 62.378510,1.000000 67.533882,1.000000 
z"/>
<path fill="#7663FE" opacity="1.000000" stroke="none" 
	d="
M251.000000,165.000000 
	C251.000000,171.687637 251.000000,178.375290 250.662323,185.462891 
	C246.509033,181.160004 242.736282,176.421539 238.865723,171.764359 
	C235.016144,167.132416 231.068268,162.582184 227.093018,157.658844 
	C226.337433,155.911453 225.652298,154.501328 224.909790,152.737747 
	C223.855911,150.476120 222.859375,148.567947 222.088699,146.406921 
	C226.117798,145.018845 227.108276,142.301636 226.122849,138.805923 
	C225.076645,135.094635 222.020340,135.015320 218.886002,135.240402 
	C215.927780,135.452820 212.963821,135.585083 209.977783,135.405426 
	C207.720261,131.610687 205.426086,128.200958 203.267944,124.707207 
	C199.468079,118.555763 195.751312,112.353004 192.432999,106.088303 
	C198.242584,105.548233 203.618912,105.091591 209.046112,105.008270 
	C213.661407,112.636032 218.072220,119.992966 222.828293,127.119492 
	C229.067764,136.468719 235.453842,145.726990 242.035858,154.837280 
	C244.668716,158.481461 247.991348,161.627319 251.000000,165.000000 
z"/>
<path fill="#7A68FF" opacity="1.000000" stroke="none" 
	d="
M175.156296,57.392258 
	C163.406845,40.385281 151.649475,23.383759 139.921768,6.361805 
	C138.894699,4.871089 138.062210,3.246310 137.069672,1.341901 
	C143.354401,1.000000 149.708786,1.000000 156.596268,1.351317 
	C157.895844,3.347647 158.442932,5.145285 159.463989,6.613235 
	C166.817535,17.185242 174.393341,27.604603 181.634583,38.251980 
	C185.417511,43.814342 188.665573,49.740471 191.805115,55.660507 
	C188.236282,56.181061 185.020721,56.574989 181.797806,56.894829 
	C179.589264,57.114006 177.370499,57.230091 175.156296,57.392258 
z"/>
<path fill="#7D6BFF" opacity="1.000000" stroke="none" 
	d="
M251.000000,121.000000 
	C251.000000,128.020950 251.000000,135.041901 250.646362,142.505539 
	C248.711990,141.577118 246.826782,140.431412 245.611481,138.789764 
	C242.750671,134.925385 240.141907,130.867462 237.553497,126.809830 
	C232.570526,118.998390 227.672256,111.132927 223.055313,103.150787 
	C227.021210,101.908714 228.259552,98.849785 226.798843,96.055939 
	C225.787704,94.122017 222.682816,92.563004 220.317261,92.229858 
	C216.974121,91.759048 213.449875,92.574409 209.925400,92.513008 
	C208.095139,89.825439 206.158463,87.577797 204.626663,85.081688 
	C200.983200,79.144508 197.531296,73.089798 194.402771,66.951172 
	C200.535583,66.571068 206.267624,66.322365 212.066940,66.417786 
	C212.371033,67.382347 212.496216,68.079147 212.860840,68.612137 
	C224.204773,85.194191 235.539764,101.782684 247.000992,118.283470 
	C247.859070,119.518852 249.645248,120.109589 251.000000,121.000000 
z"/>
<path fill="#7F6EFF" opacity="1.000000" stroke="none" 
	d="
M192.155228,55.502304 
	C188.665573,49.740471 185.417511,43.814342 181.634583,38.251980 
	C174.393341,27.604603 166.817535,17.185242 159.463989,6.613235 
	C158.442932,5.145285 157.895844,3.347647 157.064667,1.351317 
	C163.021149,1.000000 169.042297,1.000000 175.531738,0.999996 
	C180.444077,7.935272 184.776428,14.945341 189.358078,21.788500 
	C196.436584,32.360973 203.685623,42.819298 210.475662,53.755882 
	C204.111069,54.624592 198.133148,55.063450 192.155228,55.502304 
z"/>
<path fill="#5640FF" opacity="1.000000" stroke="none" 
	d="
M183.000000,251.000000 
	C176.312363,251.000000 169.624710,251.000000 162.404343,250.649628 
	C158.574707,245.197540 155.277802,240.095810 152.161926,234.702881 
	C154.124268,232.020966 157.947830,229.617493 154.832718,226.559265 
	C153.096161,224.854416 149.318832,225.207794 146.449707,224.698242 
	C145.998169,224.618042 145.485565,224.881683 144.932251,224.650879 
	C143.648926,222.781937 142.383423,221.285828 141.229889,219.707886 
	C137.968170,215.246109 133.540070,211.347046 134.416962,205.028641 
	C139.833252,203.648376 144.837753,202.285080 150.084076,201.171936 
	C156.610107,210.672104 162.808502,219.983109 169.285248,229.096313 
	C170.111435,230.258804 172.389984,230.389084 174.002594,231.384216 
	C174.088364,236.525742 177.462601,236.872284 181.186340,237.213715 
	C181.915024,237.953796 182.459290,238.478119 182.845245,239.327637 
	C179.409912,243.528534 182.752029,247.221573 183.000000,251.000000 
z"/>
<path fill="#6D5AFF" opacity="1.000000" stroke="none" 
	d="
M127.177803,62.541653 
	C116.639549,47.312771 106.043396,32.123444 95.596535,16.832125 
	C92.241646,11.921493 89.280838,6.741623 86.069870,1.342465 
	C91.022095,1.000000 96.044182,1.000000 101.533142,1.000001 
	C107.105591,8.929282 112.072784,16.952030 117.349579,24.765697 
	C125.055084,36.175709 132.995148,47.427174 140.789703,58.777489 
	C141.333694,59.569637 141.501480,60.620132 141.418152,61.912491 
	C136.387314,62.363541 131.782562,62.452599 127.177803,62.541653 
z"/>
<path fill="#614CFF" opacity="1.000000" stroke="none" 
	d="
M52.539364,1.000000 
	C54.126518,3.527400 54.898056,6.298220 56.437149,8.542706 
	C66.443527,23.135136 76.621376,37.609932 86.733459,52.129944 
	C92.491798,60.398396 98.231888,68.679550 104.064224,77.625580 
	C103.325325,80.863945 102.502411,83.431709 101.679497,85.999474 
	C99.752373,84.609818 97.267654,83.607994 95.987900,81.768066 
	C87.172867,69.094490 78.705452,56.179680 69.937981,43.472340 
	C61.355644,31.033333 52.536709,18.757715 43.860085,6.383413 
	C42.825314,4.907658 42.032063,3.262552 41.063431,1.347972 
	C44.692909,1.000000 48.385818,1.000000 52.539364,1.000000 
z"/>
<path fill="#3216FF" opacity="1.000000" stroke="none" 
	d="
M1.000001,202.468658 
	C2.453605,203.015915 4.337241,203.730103 5.294485,205.094315 
	C15.185838,219.190964 24.935642,233.387085 34.689980,247.579468 
	C35.239952,248.379639 35.485111,249.389297 35.936066,250.650726 
	C27.312437,251.000000 18.624874,251.000000 9.795577,250.750061 
	C6.769228,248.333420 3.884614,246.166702 1.000000,244.000000 
	C1.000000,230.312439 1.000000,216.624878 1.000001,202.468658 
z"/>
<path fill="#5942FF" opacity="1.000000" stroke="none" 
	d="
M7.000000,1.000000 
	C10.692909,1.000000 14.385818,1.000000 18.602886,1.348258 
	C25.213051,10.753369 31.346327,19.778913 37.371666,28.875952 
	C43.304653,37.833557 49.128235,46.863625 54.553364,55.941792 
	C49.423840,56.411812 44.740772,56.801941 39.989716,56.831078 
	C39.172752,54.995365 38.581730,53.411629 37.650696,52.062550 
	C26.782684,36.314667 15.863497,20.602104 5.114042,4.553391 
	C5.846830,3.151054 6.423415,2.075527 7.000000,1.000000 
z"/>
<path fill="#6752FF" opacity="1.000000" stroke="none" 
	d="
M224.005951,207.046570 
	C224.866180,209.146194 225.410080,211.455353 226.639023,213.310760 
	C233.568787,223.773041 240.663132,234.126312 247.731522,245.133575 
	C246.174438,247.500290 244.587219,249.250137 243.000000,251.000000 
	C240.299988,251.000000 237.599976,251.000000 234.384735,250.646027 
	C231.553513,246.155121 228.695847,242.135162 230.994202,236.616028 
	C229.805557,230.658524 228.180771,229.614227 222.824310,230.804459 
	C220.573608,231.304596 218.278549,231.605118 215.934509,231.658905 
	C211.317749,225.000320 206.654022,218.757675 202.296875,212.307892 
	C201.071289,210.493652 200.745682,208.071426 200.450806,205.936096 
	C203.262070,205.946060 205.629791,205.947983 208.405563,206.040726 
	C213.877731,206.436554 218.941833,206.741562 224.005951,207.046570 
z"/>
<path fill="#7A67FE" opacity="1.000000" stroke="none" 
	d="
M222.738846,103.289871 
	C227.672256,111.132927 232.570526,118.998390 237.553497,126.809830 
	C240.141907,130.867462 242.750671,134.925385 245.611481,138.789764 
	C246.826782,140.431412 248.711990,141.577118 250.646362,142.974121 
	C251.000000,150.020950 251.000000,157.041901 251.000000,164.531433 
	C247.991348,161.627319 244.668716,158.481461 242.035858,154.837280 
	C235.453842,145.726990 229.067764,136.468719 222.828293,127.119492 
	C218.072220,119.992966 213.661407,112.636032 209.423828,104.840897 
	C214.080078,103.963417 218.409454,103.626640 222.738846,103.289871 
z"/>
<path fill="#8C7DFF" opacity="1.000000" stroke="none" 
	d="
M251.000000,57.531372 
	C249.034454,56.038425 246.721924,54.318653 245.159271,52.076302 
	C234.415634,36.659595 223.819031,21.140295 213.210526,5.629787 
	C212.378250,4.412907 211.815186,3.011892 211.063507,1.348224 
	C216.354935,1.000000 221.709854,1.000000 227.551773,1.369479 
	C228.381973,2.836006 228.486893,4.095009 229.105347,5.004989 
	C235.153595,13.904294 241.241745,22.777746 247.454971,31.562073 
	C248.232132,32.660835 249.799026,33.201012 251.000000,34.000000 
	C251.000000,41.687576 251.000000,49.375153 251.000000,57.531372 
z"/>
<path fill="#725FFF" opacity="1.000000" stroke="none" 
	d="
M227.163483,157.996124 
	C231.068268,162.582184 235.016144,167.132416 238.865723,171.764359 
	C242.736282,176.421539 246.509033,181.160004 250.662323,185.931427 
	C251.000000,194.687561 251.000000,203.375137 251.000000,212.531342 
	C249.576416,212.038361 247.720581,211.381073 246.796066,210.068039 
	C237.493286,196.855820 228.307373,183.560562 219.198364,170.213715 
	C218.131210,168.650070 217.724670,166.635544 217.434448,164.435928 
	C222.423126,164.280106 226.640198,163.981140 227.163483,157.996124 
z"/>
<path fill="#5D46FF" opacity="1.000000" stroke="none" 
	d="
M54.999825,55.861900 
	C49.128235,46.863625 43.304653,37.833557 37.371666,28.875952 
	C31.346327,19.778913 25.213051,10.753369 19.063522,1.348258 
	C23.024544,1.000000 27.049089,1.000000 31.536816,1.000000 
	C36.465385,7.959949 40.819981,14.994105 45.420982,21.863218 
	C53.172882,33.436497 61.092537,44.897331 68.898598,56.434578 
	C69.434502,57.226639 69.612724,58.260704 69.619392,59.498180 
	C64.520935,58.496727 59.760384,57.179314 54.999825,55.861900 
z"/>
<path fill="#4F37FE" opacity="1.000000" stroke="none" 
	d="
M1.000001,59.000000 
	C1.000000,52.312355 1.000000,45.624710 1.336207,38.541016 
	C2.897077,39.425587 4.321274,40.568474 5.315177,42.008373 
	C14.125885,54.772709 22.816620,67.620110 31.675608,80.350548 
	C32.720367,81.851883 34.565006,82.796577 36.127136,84.451401 
	C35.803291,90.602295 35.391159,96.301109 34.645382,101.926880 
	C33.366493,100.968773 32.233650,100.215561 31.504793,99.178436 
	C23.472038,87.748154 15.591562,76.209457 7.440696,64.864761 
	C5.783403,62.558071 3.171717,60.937088 1.000001,59.000000 
z"/>
<path fill="#523BFF" opacity="1.000000" stroke="none" 
	d="
M36.038853,83.999313 
	C34.565006,82.796577 32.720367,81.851883 31.675608,80.350548 
	C22.816620,67.620110 14.125885,54.772709 5.315177,42.008373 
	C4.321274,40.568474 2.897077,39.425587 1.336207,38.072487 
	C1.000000,31.978848 1.000000,25.957697 1.322148,19.562948 
	C2.685573,20.229900 3.911815,21.141672 4.739711,22.330784 
	C13.694948,35.193237 22.528713,48.140842 31.567932,60.943554 
	C32.767712,62.642868 34.925030,63.666126 36.703392,65.459351 
	C36.524879,71.943916 36.281864,77.971611 36.038853,83.999313 
z"/>
<path fill="#3B21FF" opacity="1.000000" stroke="none" 
	d="
M35.977196,215.997559 
	C34.009899,214.704636 31.453161,213.835190 30.170778,212.050186 
	C21.707697,200.270187 13.545495,188.274414 5.201732,176.407669 
	C4.300196,175.125458 2.863957,174.219208 1.337872,173.069275 
	C1.000000,166.645599 1.000000,160.291214 1.321129,153.562607 
	C10.121777,164.846344 18.486950,176.590530 27.165203,188.098602 
	C29.207554,190.806915 32.305954,192.718872 34.941719,195.432983 
	C35.001984,197.903122 35.039051,199.937454 35.055317,202.409851 
	C35.348740,207.231140 35.662968,211.614349 35.977196,215.997559 
z"/>
<path fill="#573DFD" opacity="1.000000" stroke="none" 
	d="
M36.638897,65.002480 
	C34.925030,63.666126 32.767712,62.642868 31.567932,60.943554 
	C22.528713,48.140842 13.694948,35.193237 4.739711,22.330784 
	C3.911815,21.141672 2.685573,20.229900 1.322148,19.094677 
	C1.000000,15.307091 1.000000,11.614182 1.216130,7.786407 
	C2.607453,6.727761 3.782646,5.803981 4.957839,4.880202 
	C15.863497,20.602104 26.782684,36.314667 37.650696,52.062550 
	C38.581730,53.411629 39.172752,54.995365 39.742489,57.094097 
	C38.588467,60.146229 37.613682,62.574352 36.638897,65.002480 
z"/>
<path fill="#4128FF" opacity="1.000000" stroke="none" 
	d="
M1.000001,135.000000 
	C1.000000,128.978851 1.000000,122.957695 1.338593,116.537811 
	C3.055526,117.505127 4.689108,118.695312 5.771022,120.265587 
	C13.114975,130.924545 20.235645,141.739044 27.691853,152.317642 
	C29.313654,154.618591 32.002491,156.167450 34.151569,158.521927 
	C34.089081,163.982178 34.074902,168.983200 34.022812,174.319458 
	C33.937138,175.101852 33.889381,175.548996 33.488243,175.974884 
	C31.378578,174.561600 29.201260,173.473938 27.937605,171.725815 
	C21.893572,163.364639 16.188908,154.758606 10.172533,146.376770 
	C7.336424,142.425598 4.070929,138.782623 1.000001,135.000000 
z"/>
<path fill="#8270FE" opacity="1.000000" stroke="none" 
	d="
M251.000000,120.531601 
	C249.645248,120.109589 247.859070,119.518852 247.000992,118.283470 
	C235.539764,101.782684 224.204773,85.194191 212.860840,68.612137 
	C212.496216,68.079147 212.371033,67.382347 212.479156,66.366585 
	C217.550049,66.756233 222.276016,67.541214 227.001984,68.326187 
	C234.126923,79.024940 241.239853,89.731773 248.421707,100.392181 
	C248.702103,100.808388 249.642181,100.780151 250.637451,100.979507 
	C251.000000,107.354401 251.000000,113.708794 251.000000,120.531601 
z"/>
<path fill="#3E24FF" opacity="1.000000" stroke="none" 
	d="
M1.000001,135.467941 
	C4.070929,138.782623 7.336424,142.425598 10.172533,146.376770 
	C16.188908,154.758606 21.893572,163.364639 27.937605,171.725815 
	C29.201260,173.473938 31.378578,174.561600 33.529739,176.437027 
	C34.021255,180.929382 34.117889,184.938309 34.194820,189.329788 
	C34.422920,191.473938 34.670723,193.235565 34.918526,194.997177 
	C32.305954,192.718872 29.207554,190.806915 27.165203,188.098602 
	C18.486950,176.590530 10.121777,164.846344 1.321129,153.094208 
	C1.000000,147.311966 1.000000,141.623917 1.000001,135.467941 
z"/>
<path fill="#452CFF" opacity="1.000000" stroke="none" 
	d="
M34.199879,158.062714 
	C32.002491,156.167450 29.313654,154.618591 27.691853,152.317642 
	C20.235645,141.739044 13.114975,130.924545 5.771022,120.265587 
	C4.689108,118.695312 3.055526,117.505127 1.338593,116.069550 
	C1.000000,110.645073 1.000000,105.290138 1.000002,99.467606 
	C3.939782,102.456459 7.169199,105.709274 9.768033,109.405449 
	C19.771767,123.633232 29.579365,137.999008 39.427723,152.335571 
	C39.779179,152.847198 39.789646,153.593063 39.646065,154.664963 
	C37.622028,156.087692 35.910954,157.075211 34.199879,158.062714 
z"/>
<path fill="#4229FF" opacity="1.000000" stroke="none" 
	d="
M69.468658,251.000000 
	C68.002151,248.253647 67.004295,245.507278 66.239120,242.137909 
	C70.644806,238.343048 74.817795,235.171204 79.233971,231.768829 
	C80.983101,229.022964 82.489052,226.507645 83.994995,223.992310 
	C88.775970,230.986847 93.598495,237.953613 98.306763,244.996750 
	C99.392151,246.620377 100.085999,248.505753 100.980011,250.635330 
	C90.645775,251.000000 80.291542,251.000000 69.468658,251.000000 
z"/>
<path fill="#4D33FD" opacity="1.000000" stroke="none" 
	d="
M1.000001,59.466114 
	C3.171717,60.937088 5.783403,62.558071 7.440696,64.864761 
	C15.591562,76.209457 23.472038,87.748154 31.504793,99.178436 
	C32.233650,100.215561 33.366493,100.968773 34.714996,102.384346 
	C34.859440,107.309525 34.600620,111.704185 33.994736,116.006615 
	C32.606529,114.882835 31.388723,113.976845 30.552280,112.799835 
	C24.023050,103.612106 17.714470,94.263481 11.020992,85.198433 
	C8.058659,81.186516 4.362845,77.716187 0.999999,74.000000 
	C1.000000,69.310745 1.000000,64.621490 1.000001,59.466114 
z"/>
<path fill="#4931FF" opacity="1.000000" stroke="none" 
	d="
M0.999999,74.460632 
	C4.362845,77.716187 8.058659,81.186516 11.020992,85.198433 
	C17.714470,94.263481 24.023050,103.612106 30.552280,112.799835 
	C31.388723,113.976845 32.606529,114.882835 34.093735,116.456383 
	C34.395382,121.332161 34.250961,125.665939 34.106541,129.999710 
	C32.903076,128.926544 31.432589,128.038895 30.537971,126.751167 
	C22.659269,115.410400 14.920951,103.972107 7.044723,92.629593 
	C5.453341,90.337852 3.454776,88.328850 1.321969,86.094742 
	C1.000000,82.307091 1.000000,78.614182 0.999999,74.460632 
z"/>
<path fill="#9081FF" opacity="1.000000" stroke="none" 
	d="
M251.000000,33.531349 
	C249.799026,33.201012 248.232132,32.660835 247.454971,31.562073 
	C241.241745,22.777746 235.153595,13.904294 229.105347,5.004989 
	C228.486893,4.095009 228.381973,2.836006 228.019379,1.369479 
	C233.354935,1.000000 238.709854,1.000000 244.200684,1.239737 
	C246.557739,3.319646 248.778870,5.159819 251.000000,6.999996 
	C251.000000,15.687564 251.000000,24.375128 251.000000,33.531349 
z"/>
<path fill="#5139FF" opacity="1.000000" stroke="none" 
	d="
M151.980896,234.994095 
	C155.277802,240.095810 158.574707,245.197540 161.935806,250.649628 
	C152.979111,251.000000 143.958206,251.000000 134.468658,251.000000 
	C132.641998,248.263657 131.225754,245.554138 129.948151,242.780762 
	C129.199371,241.155319 128.671448,239.428101 128.492050,237.373474 
	C136.620255,236.331558 144.300568,235.662827 151.980896,234.994095 
z"/>
<path fill="#5B45FE" opacity="1.000000" stroke="none" 
	d="
M183.468414,251.000000 
	C182.752029,247.221573 179.409912,243.528534 183.304596,239.326843 
	C189.947769,239.334091 195.973267,239.667358 201.927155,240.379608 
	C202.237015,244.172409 202.618500,247.586197 203.000000,251.000000 
	C196.645599,251.000000 190.291214,251.000000 183.468414,251.000000 
z"/>
<path fill="#604BFE" opacity="1.000000" stroke="none" 
	d="
M203.467941,251.000000 
	C202.618500,247.586197 202.237015,244.172409 202.306213,240.358368 
	C205.171463,239.305603 207.586029,238.653107 210.391846,238.024017 
	C213.522278,238.698303 216.261444,239.349136 218.982391,240.365265 
	C219.642776,244.153687 220.321396,247.576843 221.000000,251.000000 
	C215.311966,251.000000 209.623917,251.000000 203.467941,251.000000 
z"/>
<path fill="#644FFE" opacity="1.000000" stroke="none" 
	d="
M221.463196,251.000000 
	C220.321396,247.576843 219.642776,244.153687 219.379150,240.340714 
	C223.529037,238.967468 227.263901,237.984039 230.998779,237.000610 
	C228.695847,242.135162 231.553513,246.155121 233.934753,250.646027 
	C229.975449,251.000000 225.950912,251.000000 221.463196,251.000000 
z"/>
<path fill="#000000" opacity="1.000000" stroke="none" 
	d="
M1.000000,244.497910 
	C3.884614,246.166702 6.769228,248.333420 9.326921,250.750061 
	C6.424519,251.000000 3.849037,251.000000 1.000000,251.000000 
	C1.000000,249.002365 1.000000,246.999084 1.000000,244.497910 
z"/>
<path fill="#000000" opacity="1.000000" stroke="none" 
	d="
M243.494736,251.000000 
	C244.587219,249.250137 246.174438,247.500290 247.899490,245.435364 
	C248.878647,244.527145 249.719955,243.934006 250.780640,243.670441 
	C251.000000,246.254562 251.000000,248.509140 251.000000,251.000000 
	C248.665680,251.000000 246.327576,251.000000 243.494736,251.000000 
z"/>
<path fill="#000000" opacity="1.000000" stroke="none" 
	d="
M251.000000,6.500525 
	C248.778870,5.159819 246.557739,3.319646 244.668304,1.239737 
	C246.913223,1.000000 248.826462,1.000000 251.000000,1.000000 
	C251.000000,2.663430 251.000000,4.332244 251.000000,6.500525 
z"/>
<path fill="#000000" opacity="1.000000" stroke="none" 
	d="
M5.114042,4.553391 
	C3.782646,5.803981 2.607453,6.727761 1.216130,7.325770 
	C1.000000,5.086773 1.000000,3.173546 1.000000,1.000000 
	C2.663430,1.000000 4.332244,1.000000 6.500528,1.000000 
	C6.423415,2.075527 5.846830,3.151054 5.114042,4.553391 
z"/>
<path fill="#FC0212" opacity="1.000000" stroke="none" 
	d="
M227.342834,68.165405 
	C222.276016,67.541214 217.550049,66.756233 212.411865,66.022461 
	C206.267624,66.322365 200.535583,66.571068 194.011581,66.915710 
	C190.563339,67.667091 187.907043,68.322548 185.375946,68.947113 
	C185.375946,78.109863 185.375946,86.510612 185.375946,95.331680 
	C193.806778,94.478668 201.904907,93.659325 210.003036,92.839973 
	C213.449875,92.574409 216.974121,91.759048 220.317261,92.229858 
	C222.682816,92.563004 225.787704,94.122017 226.798843,96.055939 
	C228.259552,98.849785 227.021210,101.908714 223.055313,103.150787 
	C218.409454,103.626640 214.080078,103.963417 209.372955,104.467567 
	C203.618912,105.091591 198.242584,105.548233 192.022552,106.029999 
	C188.900330,106.332268 186.621826,106.609421 184.016098,106.926376 
	C184.016098,114.761475 183.962677,122.355202 184.037003,129.947678 
	C184.078690,134.207443 186.302444,136.233597 190.640640,136.100586 
	C197.092041,135.902817 203.548233,135.860870 210.002380,135.752609 
	C212.963821,135.585083 215.927780,135.452820 218.886002,135.240402 
	C222.020340,135.015320 225.076645,135.094635 226.122849,138.805923 
	C227.108276,142.301636 226.117798,145.018845 221.628815,146.430634 
	C213.958374,147.014648 206.973709,147.322098 199.541946,147.503204 
	C196.282684,147.253067 193.466675,147.185638 190.658966,146.995728 
	C178.678268,146.185516 174.046982,141.818405 173.138412,129.851471 
	C172.663239,123.592621 172.847778,117.283691 172.734360,110.997383 
	C173.323334,101.304535 173.912292,91.611679 174.396606,81.459854 
	C174.170700,75.941231 173.926865,70.880295 173.979492,65.822449 
	C174.006149,63.259949 174.568024,60.703014 175.022110,57.767910 
	C177.370499,57.230091 179.589264,57.114006 181.797806,56.894829 
	C185.020721,56.574989 188.236282,56.181061 191.805115,55.660507 
	C198.133148,55.063450 204.111069,54.624592 210.544540,54.097843 
	C215.832306,54.920467 220.774414,55.471848 225.447617,56.901943 
	C227.594238,57.558857 230.361343,59.707935 230.744629,61.605106 
	C231.118683,63.456577 228.812958,65.849442 227.342834,68.165405 
z"/>
<path fill="#FB0212" opacity="1.000000" stroke="none" 
	d="
M101.759750,86.410004 
	C102.502411,83.431709 103.325325,80.863945 104.245392,77.960464 
	C107.022064,74.786652 109.701591,71.948555 112.689102,68.938004 
	C117.513496,66.798752 122.029892,64.831955 126.862045,62.703403 
	C131.782562,62.452599 136.387314,62.363541 141.452942,62.280663 
	C144.908813,63.210545 148.189468,63.655949 150.803665,65.217278 
	C152.713730,66.358063 154.886398,68.948059 154.919983,70.926392 
	C154.979553,74.434944 151.586044,74.315323 148.864563,74.216461 
	C148.201645,74.192368 147.541473,74.092857 146.066895,73.920303 
	C138.119003,71.878281 131.012405,71.063492 123.683380,74.417679 
	C120.980728,76.261009 118.170258,77.669044 116.312325,79.878181 
	C111.782890,85.263817 113.380684,90.562759 120.212334,92.274857 
	C124.996063,93.473732 130.060883,93.551033 135.326355,94.325623 
	C156.766235,97.910011 164.859344,112.754593 155.367279,131.405426 
	C150.252914,137.505051 143.796280,140.866287 136.374023,143.445007 
	C128.298950,143.734695 120.648247,143.963943 112.626556,144.047394 
	C106.035416,142.273209 100.071014,140.009277 96.479256,134.305359 
	C94.170593,130.639084 93.195892,126.604149 98.125648,123.466415 
	C100.768822,124.613274 103.764893,125.259338 105.232780,127.114555 
	C109.112747,132.018295 113.794815,134.706680 120.000465,134.829163 
	C123.849434,134.522247 127.698410,134.215317 132.231628,133.639343 
	C135.625824,131.950500 138.335754,130.530685 141.407227,129.075867 
	C150.222427,124.010330 150.886963,113.225601 142.359726,108.761742 
	C137.164688,106.042236 130.825470,105.508415 124.620987,103.852478 
	C120.519928,103.073051 116.798073,102.433975 113.076225,101.794907 
	C106.861259,98.656517 101.561394,94.831467 101.759750,86.410004 
z"/>
<path fill="#6C55FC" opacity="1.000000" stroke="none" 
	d="
M124.008850,74.346794 
	C131.012405,71.063492 138.119003,71.878281 145.626770,73.955154 
	C149.352081,79.760498 152.523376,85.540932 156.106735,91.053505 
	C159.815796,96.759422 163.843369,102.266129 167.916321,107.722099 
	C168.924011,109.071976 170.646622,109.888161 172.387482,110.973526 
	C172.847778,117.283691 172.663239,123.592621 173.138412,129.851471 
	C174.046982,141.818405 178.678268,146.185516 190.658966,146.995728 
	C193.466675,147.185638 196.282684,147.253067 199.545486,147.835144 
	C199.997879,149.177032 199.999664,150.060608 199.550613,150.980011 
	C197.619492,151.038864 196.113266,150.892365 194.663345,151.114075 
	C188.111145,152.116013 181.062500,151.591797 175.529785,156.968140 
	C174.549179,156.759048 173.632584,156.772232 173.331253,156.348190 
	C167.390106,147.987885 161.520325,139.576859 155.636017,131.176147 
	C164.859344,112.754593 156.766235,97.910011 135.261353,93.972748 
	C133.134888,90.444328 131.375336,87.478989 129.670853,84.482330 
	C127.757568,81.118584 125.894035,77.726524 124.008850,74.346794 
z"/>
<path fill="#FA0213" opacity="1.000000" stroke="none" 
	d="
M34.224571,130.433884 
	C34.250961,125.665939 34.395382,121.332161 34.440804,116.548622 
	C34.600620,111.704185 34.859440,107.309525 35.048645,102.457390 
	C35.391159,96.301109 35.803291,90.602295 36.127136,84.451401 
	C36.281864,77.971611 36.524879,71.943916 36.703392,65.459351 
	C37.613682,62.574352 38.588467,60.146229 39.810478,57.455086 
	C44.740772,56.801941 49.423840,56.411812 54.553364,55.941788 
	C59.760384,57.179314 64.520935,58.496727 69.641205,59.856621 
	C78.165588,65.114975 84.312004,71.599289 83.971085,82.967545 
	C81.942604,88.846169 79.929100,93.908607 77.620239,99.122246 
	C72.338058,102.393135 67.351242,105.512833 61.977016,108.651733 
	C56.246208,109.182762 50.902805,109.694588 45.040131,110.256157 
	C45.040131,111.469254 45.040131,113.234291 44.932228,115.457169 
	C44.815651,122.607452 44.806973,129.299896 44.798294,135.992325 
	C44.172676,137.909698 43.547058,139.827072 42.785839,142.045288 
	C36.898804,143.941330 34.772263,142.545349 34.430954,136.860840 
	C34.311340,134.868668 34.366985,132.865952 34.224571,130.433884 
M46.934650,69.919701 
	C46.934650,79.432938 46.934650,88.946175 46.934650,98.817749 
	C53.357552,99.805122 60.079330,99.696159 66.707626,94.956726 
	C77.471535,85.731186 76.238106,73.716652 63.528160,68.698921 
	C59.098869,66.950287 53.817070,67.301987 48.907295,66.913002 
	C48.365425,66.870079 47.709209,68.270370 46.934650,69.919701 
z"/>
<path fill="#3520D1" opacity="1.000000" stroke="none" 
	d="
M34.941723,195.432983 
	C34.670723,193.235565 34.422920,191.473938 34.606316,189.343521 
	C38.340652,188.644302 41.643791,188.313873 45.286297,188.224823 
	C51.750195,189.289642 57.874729,190.113098 63.999264,190.936539 
	C64.538635,191.135559 65.078003,191.334579 65.788940,192.101044 
	C64.800888,193.864548 63.746525,195.192261 62.455738,196.224274 
	C60.733429,197.601288 58.827442,198.748581 56.556225,199.994797 
	C53.742264,200.016403 51.372421,200.037750 48.689720,200.096848 
	C47.568989,200.751282 46.761120,201.367981 45.498749,201.988342 
	C41.721539,201.985260 38.398830,201.978516 35.076118,201.971771 
	C35.039051,199.937454 35.001984,197.903122 34.941723,195.432983 
z"/>
<path fill="#442BFE" opacity="1.000000" stroke="none" 
	d="
M63.979218,190.580688 
	C57.874729,190.113098 51.750195,189.289642 45.304699,187.762115 
	C44.965206,182.699799 44.946674,178.341568 44.950054,173.530746 
	C45.002377,170.052673 45.032791,167.027191 45.063206,164.001724 
	C47.421009,166.861008 49.966633,169.587845 52.096424,172.607925 
	C56.175529,178.392166 60.018314,184.343079 63.979218,190.580688 
z"/>
<path fill="#311EB9" opacity="1.000000" stroke="none" 
	d="
M45.032898,163.603394 
	C45.032791,167.027191 45.002377,170.052673 44.499908,173.535629 
	C40.705482,173.990158 37.383102,173.987198 34.060726,173.984253 
	C34.074902,168.983200 34.089081,163.982178 34.151569,158.521927 
	C35.910954,157.075211 37.622028,156.087692 39.666172,155.024216 
	C43.801502,156.407104 45.207371,159.318085 45.032898,163.603394 
z"/>
<path fill="#3A25D7" opacity="1.000000" stroke="none" 
	d="
M57.000347,199.994537 
	C58.827442,198.748581 60.733429,197.601288 62.455738,196.224274 
	C63.746525,195.192261 64.800888,193.864548 65.995171,192.305099 
	C72.725395,193.972488 77.808105,197.938477 80.550186,204.683105 
	C76.806824,205.703171 73.392746,206.357925 69.691170,206.835724 
	C65.269234,204.437378 61.134789,202.215958 57.000347,199.994537 
z"/>
<path fill="#3D26EB" opacity="1.000000" stroke="none" 
	d="
M83.996887,223.554962 
	C82.489052,226.507645 80.983101,229.022964 78.844360,231.745468 
	C74.806389,230.632553 71.401215,229.312454 68.172417,227.702972 
	C69.912979,223.935806 71.477158,220.458038 73.496613,216.984268 
	C77.293358,216.988647 80.634827,216.989014 83.976295,216.989395 
	C83.983788,219.032135 83.991287,221.074860 83.996887,223.554962 
z"/>
<path fill="#3D27E0" opacity="1.000000" stroke="none" 
	d="
M83.981979,216.560272 
	C80.634827,216.989014 77.293358,216.988647 73.486343,216.585403 
	C72.006752,213.125916 70.992714,210.069305 69.978668,207.012665 
	C73.392746,206.357925 76.806824,205.703171 80.623230,205.024261 
	C82.012932,208.710449 83.000298,212.420792 83.981979,216.560272 
z"/>
<path fill="#6753FE" opacity="1.000000" stroke="none" 
	d="
M195.010132,163.186554 
	C197.804352,168.325119 200.321533,173.641022 203.466980,178.554764 
	C206.947205,183.991516 211.002350,189.060242 214.496796,194.556870 
	C208.787598,194.239090 203.388733,193.653671 197.555954,193.044006 
	C193.741226,192.698639 190.360397,192.377548 186.590698,191.993851 
	C181.781982,189.447296 185.099411,185.207031 183.961060,181.521362 
	C184.253845,176.361252 184.528961,171.662003 184.919159,166.610443 
	C187.514053,162.488342 191.318649,163.021103 195.010132,163.186554 
z"/>
<path fill="#4B3DB5" opacity="1.000000" stroke="none" 
	d="
M195.457428,163.139130 
	C191.318649,163.021103 187.514053,162.488342 184.488632,166.620178 
	C180.328491,166.649796 176.713943,166.317383 173.146667,165.622772 
	C174.089355,162.502670 174.984818,159.744766 175.880264,156.986847 
	C181.062500,151.591797 188.111145,152.116013 194.663345,151.114075 
	C196.113266,150.892365 197.619492,151.038864 200.012817,151.012634 
	C204.943100,151.111862 208.960373,151.214294 212.956909,151.658539 
	C211.535233,153.905441 210.208405,155.871185 208.712402,157.698441 
	C207.229935,159.509140 205.576950,161.180222 203.998749,162.912537 
	C201.300735,162.972244 198.602737,163.031967 195.457428,163.139130 
z"/>
<path fill="#5746D9" opacity="1.000000" stroke="none" 
	d="
M197.989868,193.068268 
	C203.388733,193.653671 208.787598,194.239090 214.596893,194.874023 
	C216.390457,194.959122 217.773560,194.994720 219.551727,195.409607 
	C218.807190,196.970932 217.767319,198.274185 216.507645,199.310211 
	C213.729736,201.594925 210.841019,203.744934 207.997498,205.949890 
	C205.629791,205.947983 203.262070,205.946060 200.119598,205.716324 
	C196.562759,205.280319 193.780685,205.072128 191.075378,204.535553 
	C192.374344,202.516052 193.705551,200.891510 194.789352,199.115921 
	C195.975388,197.172806 196.932800,195.090118 197.989868,193.068268 
z"/>
<path fill="#5143B8" opacity="1.000000" stroke="none" 
	d="
M204.412750,162.970581 
	C205.576950,161.180222 207.229935,159.509140 208.712402,157.698441 
	C210.208405,155.871185 211.535233,153.905441 213.361969,151.606873 
	C217.514221,151.839310 221.240707,152.465240 224.967163,153.091187 
	C225.652298,154.501328 226.337433,155.911453 227.093018,157.658844 
	C226.640198,163.981140 222.423126,164.280106 217.430115,164.057892 
	C212.944397,163.725525 208.885574,163.377075 204.412750,162.970581 
z"/>
<path fill="#5B49DD" opacity="1.000000" stroke="none" 
	d="
M208.405548,206.040710 
	C210.841019,203.744934 213.729736,201.594925 216.507645,199.310211 
	C217.767319,198.274185 218.807190,196.970932 219.966553,195.427338 
	C223.168228,195.355972 226.919785,195.654053 227.324799,199.420242 
	C227.571320,201.712341 225.579880,204.245102 224.299835,206.858170 
	C218.941833,206.741562 213.877731,206.436554 208.405548,206.040710 
z"/>
<path fill="#5D45FD" opacity="1.000000" stroke="none" 
	d="
M77.915604,98.971054 
	C79.929100,93.908607 81.942604,88.846169 84.043793,83.391754 
	C85.915359,84.403717 88.171799,85.479958 89.408432,87.263351 
	C99.415649,101.694977 109.247871,116.248276 119.065567,130.810226 
	C119.668221,131.704086 119.694908,132.986252 119.995026,134.458466 
	C113.794815,134.706680 109.112747,132.018295 105.232780,127.114555 
	C103.764893,125.259338 100.768822,124.613274 97.788139,123.241318 
	C92.227837,116.433022 87.409294,109.753410 82.426598,103.198578 
	C81.197029,101.581055 79.433609,100.369324 77.915604,98.971054 
z"/>
<path fill="#634CFD" opacity="1.000000" stroke="none" 
	d="
M141.045700,129.110870 
	C138.335754,130.530685 135.625824,131.950500 132.531830,133.392563 
	C129.804794,129.484726 127.518814,125.519257 125.105949,121.632561 
	C121.140175,115.244446 117.092148,108.907394 113.077515,102.171860 
	C116.798073,102.433975 120.519928,103.073051 124.685593,104.204964 
	C130.434845,112.835487 135.740265,120.973175 141.045700,129.110870 
z"/>
<path fill="#3A21F5" opacity="1.000000" stroke="none" 
	d="
M67.996040,227.992355 
	C71.401215,229.312454 74.806389,230.632553 78.601173,231.976013 
	C74.817795,235.171204 70.644806,238.343048 66.233238,241.755615 
	C58.262974,241.473984 50.525043,241.028030 42.802170,240.397675 
	C38.829975,240.073441 36.481224,237.808655 36.397919,233.438873 
	C40.167461,232.755463 43.589493,232.377121 47.470917,231.997971 
	C54.219158,231.867874 60.760460,232.880493 66.332306,228.001007 
	C67.108734,227.997086 67.552391,227.994720 67.996040,227.992355 
z"/>
<path fill="#341DDE" opacity="1.000000" stroke="none" 
	d="
M35.055313,202.409851 
	C38.398830,201.978516 41.721539,201.985260 45.516289,202.431839 
	C46.315914,207.575699 46.643497,212.279739 46.571472,217.067123 
	C42.789181,217.428253 39.406498,217.706024 36.023811,217.983795 
	C36.016159,217.542358 36.008511,217.100937 35.989029,216.328537 
	C35.662968,211.614349 35.348740,207.231140 35.055313,202.409851 
z"/>
<path fill="#351DEB" opacity="1.000000" stroke="none" 
	d="
M36.015228,218.451492 
	C39.406498,217.706024 42.789181,217.428253 46.582306,217.534958 
	C46.999008,222.612549 47.005268,227.305664 47.011528,231.998779 
	C43.589493,232.377121 40.167461,232.755463 36.380962,233.064423 
	C36.013214,228.303101 36.009930,223.611145 36.015228,218.451492 
z"/>
<path fill="#4D34FE" opacity="1.000000" stroke="none" 
	d="
M45.151295,136.054474 
	C44.806973,129.299896 44.815651,122.607452 45.267467,115.528046 
	C47.066879,116.312073 48.733253,117.265327 49.731812,118.687485 
	C60.592987,134.155960 71.291489,149.738678 82.153549,165.206528 
	C90.347534,176.874969 98.714378,188.422012 106.789886,200.270599 
	C105.374420,202.335266 104.173355,204.152405 102.757767,206.230865 
	C102.028214,207.994812 101.513191,209.497406 100.998169,211.000000 
	C98.710190,208.737289 96.015358,206.759674 94.198395,204.166885 
	C79.276184,182.873032 64.537521,161.450623 49.666603,140.120590 
	C48.586639,138.571564 46.905777,137.441483 45.151295,136.054474 
z"/>
<path fill="#4E38F3" opacity="1.000000" stroke="none" 
	d="
M152.161926,234.702881 
	C144.300568,235.662827 136.620255,236.331558 128.473526,237.000610 
	C127.733795,236.830872 127.492348,236.623672 127.238861,235.862183 
	C128.795013,232.232681 130.395065,229.120316 132.448013,226.005051 
	C136.934326,225.663559 140.967773,225.324951 145.001205,224.986343 
	C145.485565,224.881683 145.998169,224.618042 146.449707,224.698242 
	C149.318832,225.207794 153.096161,224.854416 154.832718,226.559265 
	C157.947830,229.617493 154.124268,232.020966 152.161926,234.702881 
z"/>
<path fill="#4831F0" opacity="1.000000" stroke="none" 
	d="
M131.995117,226.007935 
	C130.395065,229.120316 128.795013,232.232681 127.097816,235.668854 
	C118.225655,234.971970 111.381439,230.677750 106.453064,223.319626 
	C110.190941,221.971695 113.605988,220.986847 117.314354,220.174164 
	C122.403481,222.233521 127.199303,224.120728 131.995117,226.007935 
z"/>
<path fill="#442EE3" opacity="1.000000" stroke="none" 
	d="
M117.021042,220.002014 
	C113.605988,220.986847 110.190941,221.971695 106.384880,222.982315 
	C104.335182,219.269547 102.676491,215.531021 101.007980,211.396240 
	C101.513191,209.497406 102.028214,207.994812 102.992088,206.546570 
	C107.967094,207.070892 112.493256,207.540878 116.840973,208.303665 
	C112.177322,212.543045 115.382492,216.247910 117.021042,220.002014 
z"/>
<path fill="#715DFE" opacity="1.000000" stroke="none" 
	d="
M209.977783,135.405426 
	C203.548233,135.860870 197.092041,135.902817 190.640640,136.100586 
	C186.302444,136.233597 184.078690,134.207443 184.037003,129.947678 
	C183.962677,122.355202 184.016098,114.761475 184.016098,106.926376 
	C186.621826,106.609421 188.900330,106.332268 191.589294,106.113419 
	C195.751312,112.353004 199.468079,118.555763 203.267944,124.707207 
	C205.426086,128.200958 207.720261,131.610687 209.977783,135.405426 
z"/>
<path fill="#725FFF" opacity="1.000000" stroke="none" 
	d="
M224.909805,152.737747 
	C221.240707,152.465240 217.514221,151.839310 213.382690,151.265045 
	C208.960373,151.214294 204.943100,151.111862 200.463638,150.976807 
	C199.999664,150.060608 199.997879,149.177032 199.992569,147.961487 
	C206.973709,147.322098 213.958374,147.014648 221.402954,146.683472 
	C222.859375,148.567947 223.855911,150.476120 224.909805,152.737747 
z"/>
<path fill="#7A64FB" opacity="1.000000" stroke="none" 
	d="
M209.925400,92.513008 
	C201.904907,93.659325 193.806778,94.478668 185.375946,95.331680 
	C185.375946,86.510612 185.375946,78.109863 185.375946,68.947113 
	C187.907043,68.322548 190.563339,67.667091 193.610809,67.047112 
	C197.531296,73.089798 200.983200,79.144508 204.626663,85.081688 
	C206.158463,87.577797 208.095139,89.825439 209.925400,92.513008 
z"/>
<path fill="#5B45FF" opacity="1.000000" stroke="none" 
	d="
M173.995697,230.997559 
	C172.389984,230.389084 170.111435,230.258804 169.285248,229.096313 
	C162.808502,219.983109 156.610107,210.672104 150.280548,200.912720 
	C151.495148,198.937912 152.755066,197.472458 154.298523,195.821960 
	C156.319351,192.080750 158.056625,188.524612 159.843903,184.641174 
	C159.944290,183.875290 159.994659,183.436661 160.364777,183.097351 
	C162.688675,185.920959 164.508621,188.811707 166.764832,191.308197 
	C168.156708,192.848312 170.213623,193.787384 172.011719,195.239944 
	C172.051468,195.483597 172.136383,195.969818 172.116821,196.385193 
	C172.732574,200.199722 173.367859,203.598877 173.999969,207.461334 
	C174.004044,211.944946 174.011276,215.965210 174.013245,220.444427 
	C174.003876,224.268097 173.999786,227.632828 173.995697,230.997559 
z"/>
<path fill="#5139FF" opacity="1.000000" stroke="none" 
	d="
M117.314354,220.174164 
	C115.382492,216.247910 112.177322,212.543045 117.216721,208.229309 
	C121.179230,207.195892 124.587563,206.529617 128.371246,205.817719 
	C130.499451,205.529922 132.252289,205.287781 134.005142,205.045624 
	C133.540070,211.347046 137.968170,215.246109 141.229889,219.707886 
	C142.383423,221.285828 143.648926,222.781937 144.932251,224.650879 
	C140.967773,225.324951 136.934326,225.663559 132.447998,226.005051 
	C127.199303,224.120728 122.403481,222.233521 117.314354,220.174164 
z"/>
<path fill="#4935D7" opacity="1.000000" stroke="none" 
	d="
M134.416962,205.028656 
	C132.252289,205.287781 130.499451,205.529922 128.371017,205.420868 
	C127.330170,201.720413 126.664909,198.371185 126.396713,194.988541 
	C130.215195,193.986557 133.636597,193.017990 137.423279,192.038483 
	C138.518326,191.994888 139.248062,191.962204 140.098999,192.272751 
	C144.818436,193.746323 149.416718,194.876663 154.014984,196.007004 
	C152.755066,197.472458 151.495148,198.937912 150.038742,200.662567 
	C144.837753,202.285080 139.833252,203.648376 134.416962,205.028656 
z"/>
<path fill="#5C47F9" opacity="1.000000" stroke="none" 
	d="
M210.000610,238.000610 
	C207.586029,238.653107 205.171463,239.305603 202.377838,239.979370 
	C195.973267,239.667358 189.947769,239.334091 183.462906,239.001648 
	C182.459290,238.478119 181.915024,237.953796 181.371567,236.930847 
	C183.584229,234.619278 185.796082,232.806335 188.433441,230.995667 
	C196.238068,231.665710 203.617203,232.333481 210.979309,233.366943 
	C210.641724,235.155289 210.321167,236.577957 210.000610,238.000610 
z"/>
<path fill="#5642F1" opacity="1.000000" stroke="none" 
	d="
M188.007935,230.993378 
	C185.796082,232.806335 183.584229,234.619278 181.187149,236.715088 
	C177.462601,236.872284 174.088364,236.525742 174.002594,231.384216 
	C173.999786,227.632828 174.003876,224.268097 174.421692,220.455536 
	C178.551804,220.001724 182.268158,219.995728 185.990234,220.430176 
	C186.666626,224.244873 187.337280,227.619141 188.007935,230.993378 
z"/>
<path fill="#614CFF" opacity="1.000000" stroke="none" 
	d="
M188.433441,230.995667 
	C187.337280,227.619141 186.666626,224.244873 185.993896,219.972076 
	C185.649231,214.711243 185.306656,210.348969 185.080154,205.663315 
	C187.130356,205.181274 189.064468,205.022598 190.998596,204.863937 
	C193.780685,205.072128 196.562759,205.280319 199.676056,205.708282 
	C200.745682,208.071426 201.071289,210.493652 202.296875,212.307892 
	C206.654022,218.757675 211.317749,225.000320 215.574768,231.725128 
	C213.854874,232.419632 212.425613,232.710434 210.996338,233.001251 
	C203.617203,232.333481 196.238068,231.665710 188.433441,230.995667 
z"/>
<path fill="#624EF9" opacity="1.000000" stroke="none" 
	d="
M210.979309,233.366943 
	C212.425613,232.710434 213.854874,232.419632 215.643906,232.062622 
	C218.278549,231.605118 220.573608,231.304596 222.824310,230.804459 
	C228.180771,229.614227 229.805557,230.658524 230.994202,236.616028 
	C227.263901,237.984039 223.529037,238.967468 219.397385,239.975433 
	C216.261444,239.349136 213.522278,238.698303 210.391861,238.024033 
	C210.321167,236.577957 210.641724,235.155289 210.979309,233.366943 
z"/>
<path fill="#321EC5" opacity="1.000000" stroke="none" 
	d="
M34.022812,174.319473 
	C37.383102,173.987198 40.705482,173.990158 44.478004,173.988235 
	C44.946674,178.341568 44.965206,182.699799 44.965336,187.520737 
	C41.643791,188.313873 38.340652,188.644302 34.626015,188.960983 
	C34.117889,184.938309 34.021255,180.929382 33.883125,176.458298 
	C33.889381,175.548996 33.937138,175.101852 34.022812,174.319473 
z"/>
<path fill="#573FFE" opacity="1.000000" stroke="none" 
	d="
M77.620239,99.122246 
	C79.433609,100.369324 81.197029,101.581055 82.426598,103.198578 
	C87.409294,109.753410 92.227837,116.433022 97.444450,123.291687 
	C93.195892,126.604149 94.170593,130.639084 96.479256,134.305359 
	C100.071014,140.009277 106.035416,142.273209 112.648918,144.403793 
	C114.364990,147.863495 115.687737,150.820984 116.608192,153.845886 
	C110.486084,155.993973 104.766266,158.074631 98.879364,159.854156 
	C93.620415,152.410278 88.532494,145.264709 83.435699,138.125473 
	C76.415451,128.291992 69.388504,118.463280 62.364426,108.632530 
	C67.351242,105.512833 72.338058,102.393135 77.620239,99.122246 
z"/>
<path fill="#634DFE" opacity="1.000000" stroke="none" 
	d="
M171.971954,194.996292 
	C170.213623,193.787384 168.156708,192.848312 166.764832,191.308197 
	C164.508621,188.811707 162.688675,185.920959 160.350159,182.672058 
	C159.162094,179.062119 158.308411,175.976822 157.380844,172.512558 
	C155.780975,165.354248 150.918045,161.689529 144.995728,158.785492 
	C144.960800,158.589951 144.902603,158.196991 144.863235,157.844086 
	C144.031845,156.299149 143.155075,155.154037 142.463989,153.906113 
	C140.534317,150.421707 138.681534,146.894730 136.798401,143.384552 
	C143.796280,140.866287 150.252914,137.505051 155.367279,131.405426 
	C161.520325,139.576859 167.390106,147.987885 173.331253,156.348190 
	C173.632584,156.772232 174.549179,156.759048 175.529785,156.968140 
	C174.984818,159.744766 174.089355,162.502670 173.097748,166.047943 
	C172.727249,172.207108 172.452911,177.578903 172.132431,183.414398 
	C172.048172,187.584167 172.010056,191.290222 171.971954,194.996292 
z"/>
<path fill="#664FFC" opacity="1.000000" stroke="none" 
	d="
M141.407227,129.075882 
	C135.740265,120.973175 130.434845,112.835487 125.064804,104.345314 
	C130.825470,105.508415 137.164688,106.042236 142.359726,108.761742 
	C150.886963,113.225601 150.222427,124.010330 141.407227,129.075882 
z"/>
<path fill="#5D46FD" opacity="1.000000" stroke="none" 
	d="
M136.374023,143.445007 
	C138.681534,146.894730 140.534317,150.421707 142.463989,153.906113 
	C143.155075,155.154037 144.031845,156.299149 144.493286,157.777283 
	C135.494537,154.210800 126.429779,152.871323 117.010483,153.778488 
	C115.687737,150.820984 114.364990,147.863495 113.019897,144.549591 
	C120.648247,143.963943 128.298950,143.734695 136.374023,143.445007 
z"/>
<path fill="#6950FA" opacity="1.000000" stroke="none" 
	d="
M123.683380,74.417679 
	C125.894035,77.726524 127.757568,81.118584 129.670853,84.482330 
	C131.375336,87.478989 133.134888,90.444328 134.935150,93.776360 
	C130.060883,93.551033 124.996063,93.473732 120.212334,92.274857 
	C113.380684,90.562759 111.782890,85.263817 116.312325,79.878181 
	C118.170258,77.669044 120.980728,76.261009 123.683380,74.417679 
z"/>
<path fill="#5039FF" opacity="1.000000" stroke="none" 
	d="
M61.977020,108.651733 
	C69.388504,118.463280 76.415451,128.291992 83.435699,138.125473 
	C88.532494,145.264709 93.620415,152.410278 98.758133,160.088409 
	C98.536354,161.082855 98.268730,161.541931 97.738579,162.227753 
	C96.744858,163.549774 95.797226,164.559753 95.325317,165.757202 
	C94.166321,168.698074 92.973503,171.771942 95.978699,174.410141 
	C99.064140,177.118759 102.029678,176.192352 105.158714,174.206085 
	C106.827423,176.447525 108.343201,178.399506 109.639862,180.487549 
	C112.815018,185.600540 115.889000,190.776352 118.607025,195.945984 
	C114.474991,197.317749 110.739639,198.670410 107.004288,200.023071 
	C98.714378,188.422012 90.347534,176.874969 82.153549,165.206528 
	C71.291489,149.738678 60.592987,134.155960 49.731812,118.687485 
	C48.733253,117.265327 47.066879,116.312073 45.375366,115.070206 
	C45.040131,113.234291 45.040131,111.469254 45.040131,110.256157 
	C50.902805,109.694588 56.246208,109.182762 61.977020,108.651733 
z"/>
<path fill="#5B41FB" opacity="1.000000" stroke="none" 
	d="
M47.106026,69.001320 
	C47.709209,68.270370 48.365425,66.870079 48.907295,66.913002 
	C53.817070,67.301987 59.098869,66.950287 63.528160,68.698921 
	C76.238106,73.716652 77.471535,85.731186 66.300812,94.686768 
	C61.814491,88.270027 57.861801,82.033325 53.596046,76.018646 
	C51.768291,73.441528 49.289181,71.326378 47.106026,69.001320 
z"/>
<path fill="#563DFC" opacity="1.000000" stroke="none" 
	d="
M47.020340,69.460510 
	C49.289181,71.326378 51.768291,73.441528 53.596046,76.018646 
	C57.861801,82.033325 61.814491,88.270027 65.965477,94.763855 
	C60.079330,99.696159 53.357552,99.805122 46.934650,98.817749 
	C46.934650,88.946175 46.934650,79.432938 47.020340,69.460510 
z"/>
<path fill="#4128FF" opacity="1.000000" stroke="none" 
	d="
M68.172417,227.702972 
	C67.552391,227.994720 67.108734,227.997086 66.159058,227.711716 
	C60.515728,220.057968 55.293892,212.748260 50.316147,205.275955 
	C49.379204,203.869476 49.415424,201.814713 49.002579,200.059113 
	C51.372421,200.037750 53.742264,200.016403 56.556229,199.994781 
	C61.134789,202.215958 65.269234,204.437378 69.691170,206.835739 
	C70.992714,210.069305 72.006752,213.125916 73.031067,216.581406 
	C71.477158,220.458038 69.912979,223.935806 68.172417,227.702972 
z"/>
<path fill="#3E24FF" opacity="1.000000" stroke="none" 
	d="
M48.689720,200.096832 
	C49.415424,201.814713 49.379204,203.869476 50.316147,205.275955 
	C55.293892,212.748260 60.515728,220.057968 65.826279,227.713272 
	C60.760460,232.880493 54.219158,231.867874 47.470917,231.997971 
	C47.005268,227.305664 46.999008,222.612549 46.981915,217.451599 
	C46.643497,212.279739 46.315914,207.575699 45.970787,202.428177 
	C46.761120,201.367981 47.568989,200.751282 48.689720,200.096832 
z"/>
<path fill="#5340D8" opacity="1.000000" stroke="none" 
	d="
M191.075378,204.535553 
	C189.064468,205.022598 187.130356,205.181274 184.654266,205.667664 
	C180.742599,206.329620 177.372879,206.663818 174.003143,206.998016 
	C173.367859,203.598877 172.732574,200.199722 172.536102,196.392944 
	C174.774384,195.790649 176.655914,195.863495 178.355042,195.341980 
	C181.289581,194.441269 184.110809,193.171417 186.979584,192.056442 
	C190.360397,192.377548 193.741226,192.698639 197.555954,193.044006 
	C196.932800,195.090118 195.975388,197.172806 194.789352,199.115921 
	C193.705551,200.891510 192.374344,202.516052 191.075378,204.535553 
z"/>
<path fill="#4C3CC3" opacity="1.000000" stroke="none" 
	d="
M172.178574,182.950699 
	C172.452911,177.578903 172.727249,172.207108 173.050491,166.410141 
	C176.713943,166.317383 180.328491,166.649796 184.373566,166.972473 
	C184.528961,171.662003 184.253845,176.361252 183.524841,181.526642 
	C179.440155,182.312088 175.809372,182.631393 172.178574,182.950699 
z"/>
<path fill="#503ED0" opacity="1.000000" stroke="none" 
	d="
M172.132431,183.414398 
	C175.809372,182.631393 179.440155,182.312088 183.507187,181.987488 
	C185.099411,185.207031 181.781982,189.447296 186.590698,191.993851 
	C184.110809,193.171417 181.289581,194.441269 178.355042,195.341980 
	C176.655914,195.863495 174.774384,195.790649 172.555664,195.977554 
	C172.136383,195.969818 172.051468,195.483597 172.011703,195.239944 
	C172.010056,191.290222 172.048172,187.584167 172.132431,183.414398 
z"/>
<path fill="#4430D9" opacity="1.000000" stroke="none" 
	d="
M106.789886,200.270599 
	C110.739639,198.670410 114.474991,197.317749 118.992783,195.898254 
	C121.850021,195.561600 123.924835,195.291779 125.999641,195.021942 
	C126.664909,198.371185 127.330170,201.720413 127.995667,205.466507 
	C124.587563,206.529617 121.179230,207.195892 117.395157,207.936523 
	C112.493256,207.540878 107.967094,207.070892 103.206619,206.285217 
	C104.173355,204.152405 105.374420,202.335266 106.789886,200.270599 
z"/>
<path fill="#5441E4" opacity="1.000000" stroke="none" 
	d="
M173.999969,207.461334 
	C177.372879,206.663818 180.742599,206.329620 184.538208,205.991058 
	C185.306656,210.348969 185.649231,214.711243 185.988174,219.531616 
	C182.268158,219.995728 178.551804,220.001724 174.426971,219.996613 
	C174.011276,215.965210 174.004044,211.944946 173.999969,207.461334 
z"/>
<path fill="#4A38D0" opacity="1.000000" stroke="none" 
	d="
M154.298523,195.821960 
	C149.416718,194.876663 144.818436,193.746323 140.325424,192.039673 
	C142.650955,189.304321 144.871231,187.145294 147.548187,184.989410 
	C151.934555,184.984543 155.864212,184.976501 159.793884,184.968460 
	C158.056625,188.524612 156.319351,192.080750 154.298523,195.821960 
z"/>
<path fill="#4937C6" opacity="1.000000" stroke="none" 
	d="
M159.843903,184.641174 
	C155.864212,184.976501 151.934555,184.984543 147.599731,184.609390 
	C146.829453,180.810150 146.464310,177.394104 146.510147,173.976318 
	C150.432327,173.613556 153.943527,173.252533 157.454727,172.891510 
	C158.308411,175.976822 159.162094,179.062119 160.030396,182.572739 
	C159.994659,183.436661 159.944290,183.875290 159.843903,184.641174 
z"/>
<path fill="#5943FF" opacity="1.000000" stroke="none" 
	d="
M146.099167,173.978043 
	C146.464310,177.394104 146.829453,180.810150 147.143051,184.606232 
	C144.871231,187.145294 142.650955,189.304321 140.204254,191.696442 
	C139.248062,191.962204 138.518326,191.994888 137.130890,191.859406 
	C132.385483,186.277893 128.096817,181.001175 124.287964,175.398270 
	C122.119492,172.208374 120.734863,168.485641 119.459877,164.971985 
	C124.935898,165.303452 129.949295,165.665771 135.204987,166.272858 
	C138.997894,169.004425 142.548538,171.491226 146.099167,173.978043 
z"/>
<path fill="#553EFF" opacity="1.000000" stroke="none" 
	d="
M118.997253,165.002853 
	C120.734863,168.485641 122.119492,172.208374 124.287964,175.398270 
	C128.096817,181.001175 132.385483,186.277893 136.765594,191.870331 
	C133.636597,193.017990 130.215195,193.986557 126.396713,194.988541 
	C123.924835,195.291779 121.850021,195.561600 119.389458,195.879150 
	C115.889000,190.776352 112.815018,185.600540 109.639862,180.487549 
	C108.343201,178.399506 106.827423,176.447525 105.313988,173.907440 
	C106.826065,171.281082 108.435486,169.180939 110.412750,166.995789 
	C113.519470,166.274811 116.258362,165.638840 118.997253,165.002853 
z"/>
<path fill="#3F2FB6" opacity="1.000000" stroke="none" 
	d="
M119.459877,164.971985 
	C116.258362,165.638840 113.519470,166.274811 110.156738,166.731689 
	C105.688957,165.035400 101.845024,163.518204 98.001099,162.001007 
	C98.268730,161.541931 98.536354,161.082855 98.925209,160.389526 
	C104.766266,158.074631 110.486084,155.993973 116.608185,153.845886 
	C126.429779,152.871323 135.494537,154.210800 144.532654,158.130188 
	C144.902603,158.196991 144.960800,158.589951 144.747818,159.016556 
	C141.344116,161.638138 138.153412,163.833130 134.962692,166.028107 
	C129.949295,165.665771 124.935898,165.303452 119.459877,164.971985 
z"/>
<path fill="#4535BC" opacity="1.000000" stroke="none" 
	d="
M135.204987,166.272858 
	C138.153412,163.833130 141.344116,161.638138 144.782745,159.212097 
	C150.918045,161.689529 155.780975,165.354248 157.380844,172.512558 
	C153.943527,173.252533 150.432327,173.613556 146.510147,173.976318 
	C142.548538,171.491226 138.997894,169.004425 135.204987,166.272858 
z"/>
<path fill="#3D2BBE" opacity="1.000000" stroke="none" 
	d="
M97.738571,162.227753 
	C101.845024,163.518204 105.688957,165.035400 109.788902,166.816696 
	C108.435486,169.180939 106.826065,171.281082 105.061371,173.679886 
	C102.029678,176.192352 99.064140,177.118759 95.978699,174.410141 
	C92.973503,171.771942 94.166321,168.698074 95.325317,165.757202 
	C95.797226,164.559753 96.744858,163.549774 97.738571,162.227753 
z"/>
</svg>